<svg xmlns="http://www.w3.org/2000/svg" width="734" height="267" viewBox="173.0 362.8 734.1 266.8" role="img" aria-label="Barrie Web Automation">
  <title>Barrie Web Automation</title>
  <g>
    <path d="M83 0V700H425Q557 700 623.5 650.0Q690 600 690 518Q690 465 665.5 426.0Q641 387 598 364Q656 345 690.5 301.0Q725 257 725 191Q725 101 654.0 50.5Q583 0 445 0ZM244 122H433Q496 122 529.0 142.5Q562 163 562 208Q562 295 433 295H244ZM244 413H405Q527 413 527 496Q527 578 405 578H244Z" fill="#B8860B" transform="translate(197.477,550.000) scale(0.25429,-0.25429)"/>
    <path d="M252 0 22 700H190L348 208L513 700H663L823 204L986 700H1141L912 0H738L584 474L425 0Z" fill="#FFFFFF" transform="translate(392.006,550.000) scale(0.25429,-0.25429)"/>
    <path d="M-9 0 303 700H463L776 0H606L544 150H219L157 0ZM270 273H493L382 540Z" fill="#B8860B" transform="translate(687.740,550.000) scale(0.25429,-0.25429)"/>
    <path d="M83 0V700H425Q557 700 623.5 650.0Q690 600 690 518Q690 465 665.5 426.0Q641 387 598 364Q656 345 690.5 301.0Q725 257 725 191Q725 101 654.0 50.5Q583 0 445 0ZM244 122H433Q496 122 529.0 142.5Q562 163 562 208Q562 295 433 295H244ZM244 413H405Q527 413 527 496Q527 578 405 578H244Z" fill="#C0C0C0" transform="translate(177.857,620.000) scale(0.04286,-0.04286)"/>
    <path d="M-9 0 303 700H463L776 0H606L544 150H219L157 0ZM270 273H493L382 540Z" fill="#C0C0C0" transform="translate(215.786,620.000) scale(0.04286,-0.04286)"/>
    <path d="M83 0V700H382Q528 700 609.0 632.0Q690 564 690 446Q690 368 652.5 311.5Q615 255 547 225L703 0H529L394 195Q390 195 386 195H245V0ZM245 324H377Q451 324 488.5 356.5Q526 389 526 446Q526 504 488.5 536.0Q451 568 377 568H245Z" fill="#C0C0C0" transform="translate(253.757,620.000) scale(0.04286,-0.04286)"/>
    <path d="M83 0V700H382Q528 700 609.0 632.0Q690 564 690 446Q690 368 652.5 311.5Q615 255 547 225L703 0H529L394 195Q390 195 386 195H245V0ZM245 324H377Q451 324 488.5 356.5Q526 389 526 446Q526 504 488.5 536.0Q451 568 377 568H245Z" fill="#C0C0C0" transform="translate(290.400,620.000) scale(0.04286,-0.04286)"/>
    <path d="M83 0V700H245V0Z" fill="#C0C0C0" transform="translate(327.043,620.000) scale(0.04286,-0.04286)"/>
    <path d="M83 0V700H612V570H244V418H569V292H244V130H625V0Z" fill="#C0C0C0" transform="translate(346.243,620.000) scale(0.04286,-0.04286)"/>
    <path d="M252 0 22 700H190L348 208L513 700H663L823 204L986 700H1141L912 0H738L584 474L425 0Z" fill="#C0C0C0" transform="translate(397.414,620.000) scale(0.04286,-0.04286)"/>
    <path d="M83 0V700H612V570H244V418H569V292H244V130H625V0Z" fill="#C0C0C0" transform="translate(452.400,620.000) scale(0.04286,-0.04286)"/>
    <path d="M83 0V700H425Q557 700 623.5 650.0Q690 600 690 518Q690 465 665.5 426.0Q641 387 598 364Q656 345 690.5 301.0Q725 257 725 191Q725 101 654.0 50.5Q583 0 445 0ZM244 122H433Q496 122 529.0 142.5Q562 163 562 208Q562 295 433 295H244ZM244 413H405Q527 413 527 496Q527 578 405 578H244Z" fill="#C0C0C0" transform="translate(486.300,620.000) scale(0.04286,-0.04286)"/>
    <path d="M-9 0 303 700H463L776 0H606L544 150H219L157 0ZM270 273H493L382 540Z" fill="#C0C0C0" transform="translate(541.500,620.000) scale(0.04286,-0.04286)"/>
    <path d="M394 -12Q245 -12 161.0 71.0Q77 154 77 308V700H239V314Q239 214 280.0 170.0Q321 126 395 126Q469 126 510.0 170.0Q551 214 551 314V700H711V308Q711 154 627.0 71.0Q543 -12 394 -12Z" fill="#C0C0C0" transform="translate(579.471,620.000) scale(0.04286,-0.04286)"/>
    <path d="M228 0V568H4V700H614V568H390V0Z" fill="#C0C0C0" transform="translate(618.386,620.000) scale(0.04286,-0.04286)"/>
    <path d="M422 -12Q339 -12 269.5 15.0Q200 42 148.0 91.0Q96 140 67.5 206.0Q39 272 39 350Q39 428 67.5 494.0Q96 560 148.0 609.0Q200 658 269.5 685.0Q339 712 422 712Q505 712 574.5 685.0Q644 658 696.0 609.5Q748 561 776.5 494.5Q805 428 805 350Q805 272 776.5 205.5Q748 139 696.0 90.5Q644 42 574.5 15.0Q505 -12 422 -12ZM422 126Q484 126 533.5 154.5Q583 183 612.0 233.5Q641 284 641 350Q641 416 612.0 466.5Q583 517 533.5 545.5Q484 574 422 574Q360 574 310.5 545.5Q261 517 232.0 466.5Q203 416 203 350Q203 284 232.0 233.5Q261 183 310.5 154.5Q360 126 422 126Z" fill="#C0C0C0" transform="translate(650.014,620.000) scale(0.04286,-0.04286)"/>
    <path d="M83 0V700H217L479 265L737 700H870L872 0H720L719 419L513 74H440L235 412V0Z" fill="#C0C0C0" transform="translate(691.329,620.000) scale(0.04286,-0.04286)"/>
    <path d="M-9 0 303 700H463L776 0H606L544 150H219L157 0ZM270 273H493L382 540Z" fill="#C0C0C0" transform="translate(737.400,620.000) scale(0.04286,-0.04286)"/>
    <path d="M228 0V568H4V700H614V568H390V0Z" fill="#C0C0C0" transform="translate(775.371,620.000) scale(0.04286,-0.04286)"/>
    <path d="M83 0V700H245V0Z" fill="#C0C0C0" transform="translate(807.000,620.000) scale(0.04286,-0.04286)"/>
    <path d="M422 -12Q339 -12 269.5 15.0Q200 42 148.0 91.0Q96 140 67.5 206.0Q39 272 39 350Q39 428 67.5 494.0Q96 560 148.0 609.0Q200 658 269.5 685.0Q339 712 422 712Q505 712 574.5 685.0Q644 658 696.0 609.5Q748 561 776.5 494.5Q805 428 805 350Q805 272 776.5 205.5Q748 139 696.0 90.5Q644 42 574.5 15.0Q505 -12 422 -12ZM422 126Q484 126 533.5 154.5Q583 183 612.0 233.5Q641 284 641 350Q641 416 612.0 466.5Q583 517 533.5 545.5Q484 574 422 574Q360 574 310.5 545.5Q261 517 232.0 466.5Q203 416 203 350Q203 284 232.0 233.5Q261 183 310.5 154.5Q360 126 422 126Z" fill="#C0C0C0" transform="translate(826.200,620.000) scale(0.04286,-0.04286)"/>
    <path d="M83 0V700H217L565 274V700H725V0H592L243 426V0Z" fill="#C0C0C0" transform="translate(867.514,620.000) scale(0.04286,-0.04286)"/>
    <rect x="197.48" y="562.00" width="685.05" height="2.4" fill="#B8860B"/>
  </g>
</svg>